<?xml version="1.0" standalone="no"?>
<!DOCTYPE svg PUBLIC "-//W3C//DTD SVG 20010904//EN"
 "http://www.w3.org/TR/2001/REC-SVG-20010904/DTD/svg10.dtd">
<svg version="1.0" xmlns="http://www.w3.org/2000/svg"
 width="1024.000000pt" height="1024.000000pt" viewBox="0 0 1024.000000 1024.000000"
 preserveAspectRatio="xMidYMid meet">

<g transform="translate(0.000000,1024.000000) scale(0.100000,-0.100000)"
fill="#000000" stroke="none">
<path d="M8458 8361 c-13 -16 -102 -116 -199 -222 -97 -107 -218 -241 -269
-299 -52 -58 -160 -177 -240 -265 -80 -88 -233 -257 -340 -375 -106 -118 -233
-258 -280 -310 -48 -52 -179 -196 -291 -320 -112 -124 -361 -398 -554 -610
-192 -211 -375 -411 -405 -445 -30 -34 -138 -153 -240 -265 -102 -111 -219
-240 -260 -285 -41 -46 -187 -205 -323 -353 l-248 -271 89 -113 c49 -62 245
-318 437 -568 192 -250 374 -487 404 -526 31 -40 120 -156 199 -258 l143 -186
636 0 c605 0 635 1 621 18 -8 9 -219 280 -468 602 -250 322 -479 617 -509 656
-31 40 -73 94 -93 120 -21 27 -171 220 -334 429 -163 209 -307 395 -321 412
l-25 33 93 103 c52 56 186 204 299 328 113 124 309 339 435 479 127 140 259
286 295 325 74 80 318 348 400 440 170 190 512 568 556 615 57 61 201 221 374
415 63 71 140 156 171 189 31 34 131 144 223 245 l167 185 -53 53 c-29 29 -56
53 -59 53 -4 0 -18 -13 -31 -29z"/>
<path d="M3390 5577 l0 -1943 -52 -61 c-29 -34 -125 -141 -213 -239 -88 -97
-207 -230 -265 -294 -221 -247 -485 -535 -740 -809 -146 -156 -275 -296 -287
-311 l-22 -27 55 -54 56 -54 46 51 c26 29 166 179 312 335 310 331 530 569
966 1045 71 77 296 320 499 539 204 219 403 435 444 479 41 45 129 140 196
211 67 72 152 164 190 205 91 101 282 307 375 405 41 44 152 163 246 265 321
349 577 625 633 685 31 33 133 143 226 245 417 453 785 851 854 925 42 44 132
140 199 213 l124 132 -610 0 -609 0 -139 -152 c-76 -84 -186 -205 -244 -268
-114 -124 -321 -351 -380 -415 -20 -22 -94 -103 -165 -180 -70 -77 -147 -160
-169 -185 -23 -25 -132 -144 -242 -265 -111 -121 -231 -251 -267 -290 l-66
-70 -1 913 0 912 -475 0 -475 0 0 -1943z"/>
<path d="M4184 3858 c-82 -89 -198 -216 -259 -282 -60 -66 -206 -223 -322
-349 l-213 -229 0 -154 0 -154 475 0 475 0 0 665 c0 366 -1 665 -3 665 -2 0
-71 -73 -153 -162z"/>
</g>
</svg>
